<svg xmlns="http://www.w3.org/2000/svg" viewBox="0 0 211.83 44.49"><defs><style>.cls-1{fill:#231f20;}.cls-2{fill:#7c3aed;}</style></defs><g id="Layer_2" data-name="Layer 2"><g id="Main"><path class="cls-1" d="M71.42,26.9A11.21,11.21,0,0,0,69,26a20.66,20.66,0,0,0-2.28-.47c-.7-.11-1.33-.23-1.87-.36a4.22,4.22,0,0,1-1.28-.49.87.87,0,0,1-.47-.73.83.83,0,0,1,.4-.76,2.73,2.73,0,0,1,1-.37,5.68,5.68,0,0,1,1-.11,3.77,3.77,0,0,1,1.1.17,2.12,2.12,0,0,1,.9.52,1.21,1.21,0,0,1,.36.91v.19h5.83v-.2a4.63,4.63,0,0,0-1.16-3.17,7.43,7.43,0,0,0-3-2.05,11.17,11.17,0,0,0-4-.71,12.32,12.32,0,0,0-4.12.65,7.14,7.14,0,0,0-3,1.9,4.55,4.55,0,0,0-1.13,3.14A4,4,0,0,0,58,26.4,5.39,5.39,0,0,0,59.74,28a10.8,10.8,0,0,0,2.34,1,18.23,18.23,0,0,0,2.43.55,20.19,20.19,0,0,1,2.89.64c.57.2.85.53.85,1a.87.87,0,0,1-.4.74,2.58,2.58,0,0,1-1,.42,5.86,5.86,0,0,1-1.16.12,4.47,4.47,0,0,1-2-.36,1.25,1.25,0,0,1-.73-1.2v-.2h-5.9v.23a4.68,4.68,0,0,0,.73,2.6,6.14,6.14,0,0,0,1.93,1.86,9.83,9.83,0,0,0,2.7,1.11,13,13,0,0,0,3.07.36,14.7,14.7,0,0,0,3-.31,9.94,9.94,0,0,0,2.74-1,5.58,5.58,0,0,0,2-1.81A4.81,4.81,0,0,0,74,31a4.11,4.11,0,0,0-.72-2.5A5.49,5.49,0,0,0,71.42,26.9Z"/><path class="cls-1" d="M84.44,12.9h-6v1.64a17.85,17.85,0,0,1-.11,2.34,2.43,2.43,0,0,1-.44,1.24,1.6,1.6,0,0,1-1,.5,14.54,14.54,0,0,1-1.84.1h-.61v4.49h4v8.28a5.52,5.52,0,0,0,.63,2.83,4.22,4.22,0,0,0,1.65,1.6,6.84,6.84,0,0,0,2.2.71,15.06,15.06,0,0,0,2.27.18,7.44,7.44,0,0,0,1.58-.15,6.19,6.19,0,0,0,1-.29V32a5.48,5.48,0,0,1-.77.21,4.82,4.82,0,0,1-1.1.12c-.7,0-1.13-.23-1.3-.7a5.41,5.41,0,0,1-.25-1.75V23.21h5V18.72h-5Z"/><path class="cls-1" d="M99.55,31.6,96.4,18.72H90.21l6.09,18-.23.68a3.55,3.55,0,0,1-.72,1.28,3.2,3.2,0,0,1-1.09.81,3.09,3.09,0,0,1-1.37.29,11.24,11.24,0,0,1-1.19,0,2.52,2.52,0,0,1-.78-.15v4.38a4.07,4.07,0,0,0,.87.13c.46,0,1,.06,1.58.06a11.42,11.42,0,0,0,4.68-.82,6.81,6.81,0,0,0,2.86-2.39,15.23,15.23,0,0,0,1.82-3.84l5.93-18.35h-6.09Z"/><rect class="cls-1" x="110.23" y="10.37" width="5.85" height="26.03"/><path class="cls-1" d="M133.35,19.54a12.37,12.37,0,0,0-10.46,0,8.67,8.67,0,0,0-3.49,3.24,9.19,9.19,0,0,0-1.24,4.83,9.26,9.26,0,0,0,1.22,4.8,8.57,8.57,0,0,0,3.46,3.26,11.1,11.1,0,0,0,5.24,1.17,14,14,0,0,0,3.94-.5A9.69,9.69,0,0,0,135,35,7.18,7.18,0,0,0,136.91,33a4.75,4.75,0,0,0,.8-2.22h-5.86a1.45,1.45,0,0,1-.26.57,2,2,0,0,1-.62.54,3.8,3.8,0,0,1-1.06.39,7.24,7.24,0,0,1-1.58.15,4.55,4.55,0,0,1-2.43-.59,3.6,3.6,0,0,1-1.41-1.72,5.47,5.47,0,0,1-.26-.89h13.66a3.9,3.9,0,0,0,.05-.58c0-.25,0-.52,0-.82a10,10,0,0,0-1.2-5A8.3,8.3,0,0,0,133.35,19.54Zm-7.44,3.68a4.33,4.33,0,0,1,2.26-.56,4.24,4.24,0,0,1,2.18.5,3,3,0,0,1,1.21,1.23,3.14,3.14,0,0,1,.34,1.16h-7.63a4.8,4.8,0,0,1,.24-.7A3.51,3.51,0,0,1,125.91,23.22Z"/><polygon class="cls-1" points="157.63 32.06 154.83 18.72 152.87 18.72 150.65 18.72 148.69 18.72 145.91 32.13 144.22 18.72 138.09 18.72 141.53 36.41 149.62 36.41 151.77 24.72 153.93 36.41 162.01 36.41 165.44 18.72 159.31 18.72 157.63 32.06"/><path class="cls-1" d="M171.71,11.56a4.33,4.33,0,0,0-4.69,0,2.28,2.28,0,0,0-1,2,2.29,2.29,0,0,0,1,2,4.33,4.33,0,0,0,4.69,0,2.28,2.28,0,0,0,1-2A2.29,2.29,0,0,0,171.71,11.56Z"/><rect class="cls-1" x="166.43" y="18.72" width="5.88" height="17.69"/><path class="cls-1" d="M188.3,26.9a11.09,11.09,0,0,0-2.39-.9,20.2,20.2,0,0,0-2.28-.47q-1-.16-1.86-.36a4.19,4.19,0,0,1-1.29-.49A.85.85,0,0,1,180,24a.83.83,0,0,1,.4-.76,2.67,2.67,0,0,1,1-.37,5.86,5.86,0,0,1,1.05-.11,3.78,3.78,0,0,1,1.11.17,2.12,2.12,0,0,1,.9.52,1.21,1.21,0,0,1,.36.91v.19h5.83v-.2a4.68,4.68,0,0,0-1.16-3.17,7.5,7.5,0,0,0-3-2.05,11.17,11.17,0,0,0-4-.71,12.38,12.38,0,0,0-4.13.65,7,7,0,0,0-3,1.9,4.51,4.51,0,0,0-1.14,3.14,4,4,0,0,0,.67,2.34A5.29,5.29,0,0,0,176.62,28a10.6,10.6,0,0,0,2.34,1,18.46,18.46,0,0,0,2.42.55,19.86,19.86,0,0,1,2.89.64c.58.2.86.53.86,1a.88.88,0,0,1-.41.74,2.46,2.46,0,0,1-1,.42,5.76,5.76,0,0,1-1.15.12,4.52,4.52,0,0,1-2-.36,1.26,1.26,0,0,1-.72-1.2v-.2H174v.23a4.6,4.6,0,0,0,.73,2.6,6,6,0,0,0,1.93,1.86,9.58,9.58,0,0,0,2.7,1.11,13,13,0,0,0,3.07.36,14.7,14.7,0,0,0,3-.31,10.06,10.06,0,0,0,2.74-1,5.58,5.58,0,0,0,2-1.81,4.89,4.89,0,0,0,.73-2.71,4.05,4.05,0,0,0-.73-2.5A5.36,5.36,0,0,0,188.3,26.9Z"/><path class="cls-1" d="M210.63,22.85a8.3,8.3,0,0,0-3.41-3.31,12.35,12.35,0,0,0-10.45,0,8.63,8.63,0,0,0-3.5,3.24A9.19,9.19,0,0,0,192,27.59a9.26,9.26,0,0,0,1.22,4.8,8.57,8.57,0,0,0,3.46,3.26A11.1,11.1,0,0,0,202,36.82a14,14,0,0,0,3.94-.5,9.69,9.69,0,0,0,3-1.36A7.18,7.18,0,0,0,210.78,33a4.75,4.75,0,0,0,.8-2.22h-5.86a1.45,1.45,0,0,1-.26.57,2,2,0,0,1-.62.54,3.69,3.69,0,0,1-1.06.39,7.24,7.24,0,0,1-1.58.15,4.55,4.55,0,0,1-2.43-.59,3.6,3.6,0,0,1-1.41-1.72,5.47,5.47,0,0,1-.26-.89h13.66a3.9,3.9,0,0,0,.05-.58c0-.25,0-.52,0-.82A10,10,0,0,0,210.63,22.85Zm-10.85.37a4.33,4.33,0,0,1,2.26-.56,4.24,4.24,0,0,1,2.18.5,3,3,0,0,1,1.21,1.23,3.37,3.37,0,0,1,.35,1.16h-7.64a6.37,6.37,0,0,1,.24-.7A3.51,3.51,0,0,1,199.78,23.22Z"/><path class="cls-2" d="M34.52,29.91q1.92,6,3.64,12.08a7.24,7.24,0,0,1-.26,2.48c-.9-.12-2,0-2.68-.42-3.48-2.26-6.87-4.62-10.21-7a2.32,2.32,0,0,0-3.21,0q-5,3.66-10.21,7a7.11,7.11,0,0,1-2.68.48,8.07,8.07,0,0,1-.24-2.72c1.1-4,2.36-7.91,3.56-11.86.12-.34.2-.68.44-1.46a23.24,23.24,0,0,0-1.86-1.84c-3.16-2.44-6.39-4.77-9.51-7.27A7.43,7.43,0,0,1,0,17a7.8,7.8,0,0,1,2.38-1c4.33-.24,8.69-.3,13-.58a2.7,2.7,0,0,0,1.84-1.5C18.72,10.07,20,6.13,21.48,2.28A9.2,9.2,0,0,1,23.39,0a9.52,9.52,0,0,1,1.9,2.26c1.44,3.79,2.76,7.63,4.08,11.48a2.23,2.23,0,0,0,2.43,1.78c4.22,0,8.41.22,12.63.48a8.57,8.57,0,0,1,2.38,1,7.42,7.42,0,0,1-1.36,2.38c-3.28,2.63-6.61,5.19-10,7.67A2.21,2.21,0,0,0,34.52,29.91Z"/></g></g></svg>