<svg xmlns="http://www.w3.org/2000/svg" viewBox="0 0 46.81 44.49"><defs><style>.cls-1{fill:#7c3aed;}</style></defs><g id="Layer_2" data-name="Layer 2"><g id="Main"><path class="cls-1" d="M34.52,29.91q1.92,6,3.64,12.08a7.24,7.24,0,0,1-.26,2.48c-.9-.12-2,0-2.68-.42-3.48-2.26-6.87-4.62-10.21-7a2.32,2.32,0,0,0-3.21,0q-5,3.66-10.21,7a7.11,7.11,0,0,1-2.68.48,8.07,8.07,0,0,1-.24-2.72c1.1-4,2.36-7.91,3.56-11.86.12-.34.2-.68.44-1.46a23.24,23.24,0,0,0-1.86-1.84c-3.16-2.44-6.39-4.77-9.51-7.27A7.43,7.43,0,0,1,0,17a7.8,7.8,0,0,1,2.38-1c4.33-.24,8.69-.3,13-.58a2.7,2.7,0,0,0,1.84-1.5C18.72,10.07,20,6.13,21.48,2.28A9.2,9.2,0,0,1,23.39,0a9.52,9.52,0,0,1,1.9,2.26c1.44,3.79,2.76,7.63,4.08,11.48a2.23,2.23,0,0,0,2.43,1.78c4.22,0,8.41.22,12.63.48a8.57,8.57,0,0,1,2.38,1,7.42,7.42,0,0,1-1.36,2.38c-3.28,2.63-6.61,5.19-10,7.67A2.21,2.21,0,0,0,34.52,29.91Z"/></g></g></svg>